<svg width="124" height="28" viewBox="0 0 124 28" fill="none" xmlns="http://www.w3.org/2000/svg">
    <path d="M6.15771 17.0703L8.33496 9.75781H10.4551L7.23682 19H5.84033L6.15771 17.0703ZM4.15186 9.75781L6.32275 17.0703L6.65283 19H5.24365L2.04443 9.75781H4.15186ZM18.8213 14.1631V14.6011C18.8213 15.3035 18.7261 15.9341 18.5356 16.4927C18.3452 17.0513 18.0765 17.5273 17.7295 17.9209C17.3825 18.3102 16.9678 18.6086 16.4854 18.8159C16.0072 19.0233 15.4761 19.127 14.8921 19.127C14.3123 19.127 13.7812 19.0233 13.2988 18.8159C12.8206 18.6086 12.4059 18.3102 12.0547 17.9209C11.7035 17.5273 11.4305 17.0513 11.2358 16.4927C11.0454 15.9341 10.9502 15.3035 10.9502 14.6011V14.1631C10.9502 13.4564 11.0454 12.8258 11.2358 12.2715C11.4263 11.7129 11.695 11.2368 12.042 10.8433C12.3932 10.4497 12.8079 10.1493 13.2861 9.94189C13.7686 9.73454 14.2996 9.63086 14.8794 9.63086C15.4634 9.63086 15.9945 9.73454 16.4727 9.94189C16.9551 10.1493 17.3698 10.4497 17.7168 10.8433C18.068 11.2368 18.3389 11.7129 18.5293 12.2715C18.724 12.8258 18.8213 13.4564 18.8213 14.1631ZM16.8979 14.6011V14.1504C16.8979 13.6595 16.8535 13.2279 16.7646 12.8555C16.6758 12.4831 16.5446 12.1699 16.3711 11.916C16.1976 11.6621 15.986 11.4717 15.7363 11.3447C15.4867 11.2135 15.201 11.1479 14.8794 11.1479C14.5578 11.1479 14.2721 11.2135 14.0225 11.3447C13.777 11.4717 13.5675 11.6621 13.394 11.916C13.2248 12.1699 13.0957 12.4831 13.0068 12.8555C12.918 13.2279 12.8735 13.6595 12.8735 14.1504V14.6011C12.8735 15.0877 12.918 15.5194 13.0068 15.896C13.0957 16.2684 13.2269 16.5837 13.4004 16.8418C13.5739 17.0957 13.7855 17.2882 14.0352 17.4194C14.2848 17.5506 14.5705 17.6162 14.8921 17.6162C15.2137 17.6162 15.4993 17.5506 15.749 17.4194C15.9987 17.2882 16.2082 17.0957 16.3774 16.8418C16.5467 16.5837 16.6758 16.2684 16.7646 15.896C16.8535 15.5194 16.8979 15.0877 16.8979 14.6011ZM26.1338 17.5146V19H21.481V17.5146H26.1338ZM22.0967 9.75781V19H20.1924V9.75781H22.0967ZM29.9106 9.75781V19H28.0127V9.75781H29.9106ZM32.7544 9.75781V11.2495H25.2134V9.75781H32.7544ZM35.8647 9.75781V19H33.9668V9.75781H35.8647ZM42.752 9.75781H44.6499V15.8643C44.6499 16.5752 44.4976 17.174 44.1929 17.6606C43.8924 18.1473 43.4756 18.5133 42.9424 18.7588C42.4134 19.0042 41.804 19.127 41.1143 19.127C40.4245 19.127 39.8109 19.0042 39.2734 18.7588C38.7402 18.5133 38.3213 18.1473 38.0166 17.6606C37.7161 17.174 37.5659 16.5752 37.5659 15.8643V9.75781H39.4702V15.8643C39.4702 16.279 39.5358 16.6175 39.667 16.8799C39.7982 17.1423 39.9865 17.3348 40.2319 17.4575C40.4816 17.5802 40.7757 17.6416 41.1143 17.6416C41.4613 17.6416 41.7554 17.5802 41.9966 17.4575C42.242 17.3348 42.4282 17.1423 42.5552 16.8799C42.6864 16.6175 42.752 16.279 42.752 15.8643V9.75781ZM47.0874 9.75781H48.6997L51.0737 16.5435L53.4478 9.75781H55.0601L51.7212 19H50.4263L47.0874 9.75781ZM46.2178 9.75781H47.8237L48.1157 16.3721V19H46.2178V9.75781ZM54.3237 9.75781H55.936V19H54.0317V16.3721L54.3237 9.75781ZM67.0444 17.5146V19H62.125V17.5146H67.0444ZM62.7471 9.75781V19H60.8428V9.75781H62.7471ZM66.4033 13.522V14.9692H62.125V13.522H66.4033ZM67.0381 9.75781V11.2495H62.125V9.75781H67.0381ZM69.7231 9.75781L71.4624 12.9824L73.2017 9.75781H75.3789L72.6938 14.3408L75.4487 19H73.2524L71.4624 15.7119L69.6724 19H67.4634L70.2246 14.3408L67.5332 9.75781H69.7231ZM80.0063 15.7056H77.6514V14.2202H80.0063C80.3703 14.2202 80.6665 14.161 80.895 14.0425C81.1235 13.9198 81.2907 13.7505 81.3965 13.5347C81.5023 13.3188 81.5552 13.0755 81.5552 12.8047C81.5552 12.5296 81.5023 12.2736 81.3965 12.0366C81.2907 11.7996 81.1235 11.6092 80.895 11.4653C80.6665 11.3215 80.3703 11.2495 80.0063 11.2495H78.3115V19H76.4072V9.75781H80.0063C80.73 9.75781 81.3499 9.889 81.8662 10.1514C82.3867 10.4095 82.7845 10.7671 83.0596 11.2241C83.3346 11.6812 83.4722 12.2038 83.4722 12.792C83.4722 13.3887 83.3346 13.9049 83.0596 14.3408C82.7845 14.7767 82.3867 15.1131 81.8662 15.3501C81.3499 15.5871 80.73 15.7056 80.0063 15.7056ZM90.7275 17.5146V19H86.0747V17.5146H90.7275ZM86.6904 9.75781V19H84.7861V9.75781H86.6904ZM98.9922 14.1631V14.6011C98.9922 15.3035 98.897 15.9341 98.7065 16.4927C98.5161 17.0513 98.2474 17.5273 97.9004 17.9209C97.5534 18.3102 97.1387 18.6086 96.6562 18.8159C96.1781 19.0233 95.647 19.127 95.063 19.127C94.4832 19.127 93.9521 19.0233 93.4697 18.8159C92.9915 18.6086 92.5768 18.3102 92.2256 17.9209C91.8743 17.5273 91.6014 17.0513 91.4067 16.4927C91.2163 15.9341 91.1211 15.3035 91.1211 14.6011V14.1631C91.1211 13.4564 91.2163 12.8258 91.4067 12.2715C91.5972 11.7129 91.8659 11.2368 92.2129 10.8433C92.5641 10.4497 92.9788 10.1493 93.457 9.94189C93.9395 9.73454 94.4705 9.63086 95.0503 9.63086C95.6343 9.63086 96.1654 9.73454 96.6436 9.94189C97.126 10.1493 97.5407 10.4497 97.8877 10.8433C98.2389 11.2368 98.5098 11.7129 98.7002 12.2715C98.8949 12.8258 98.9922 13.4564 98.9922 14.1631ZM97.0688 14.6011V14.1504C97.0688 13.6595 97.0244 13.2279 96.9355 12.8555C96.8467 12.4831 96.7155 12.1699 96.542 11.916C96.3685 11.6621 96.1569 11.4717 95.9072 11.3447C95.6576 11.2135 95.3719 11.1479 95.0503 11.1479C94.7287 11.1479 94.443 11.2135 94.1934 11.3447C93.9479 11.4717 93.7384 11.6621 93.5649 11.916C93.3957 12.1699 93.2666 12.4831 93.1777 12.8555C93.0889 13.2279 93.0444 13.6595 93.0444 14.1504V14.6011C93.0444 15.0877 93.0889 15.5194 93.1777 15.896C93.2666 16.2684 93.3978 16.5837 93.5713 16.8418C93.7448 17.0957 93.9564 17.2882 94.2061 17.4194C94.4557 17.5506 94.7414 17.6162 95.063 17.6162C95.3846 17.6162 95.6702 17.5506 95.9199 17.4194C96.1696 17.2882 96.3791 17.0957 96.5483 16.8418C96.7176 16.5837 96.8467 16.2684 96.9355 15.896C97.0244 15.5194 97.0688 15.0877 97.0688 14.6011ZM100.363 9.75781H103.81C104.517 9.75781 105.124 9.86361 105.632 10.0752C106.144 10.2868 106.537 10.5999 106.812 11.0146C107.088 11.4294 107.225 11.9393 107.225 12.5444C107.225 13.0396 107.14 13.4648 106.971 13.8203C106.806 14.1715 106.571 14.4657 106.267 14.7026C105.966 14.9354 105.613 15.1216 105.207 15.2612L104.604 15.5786H101.607L101.595 14.0933H103.823C104.157 14.0933 104.434 14.034 104.654 13.9155C104.874 13.797 105.039 13.632 105.149 13.4204C105.264 13.2088 105.321 12.9634 105.321 12.6841C105.321 12.3879 105.266 12.1318 105.156 11.916C105.046 11.7002 104.879 11.5352 104.654 11.4209C104.43 11.3066 104.149 11.2495 103.81 11.2495H102.268V19H100.363V9.75781ZM105.53 19L103.423 14.8804L105.435 14.8677L107.568 18.9111V19H105.53ZM114.893 17.5146V19H109.974V17.5146H114.893ZM110.596 9.75781V19H108.691V9.75781H110.596ZM114.252 13.522V14.9692H109.974V13.522H114.252ZM114.887 9.75781V11.2495H109.974V9.75781H114.887ZM116.004 9.75781H119.451C120.157 9.75781 120.765 9.86361 121.272 10.0752C121.785 10.2868 122.178 10.5999 122.453 11.0146C122.728 11.4294 122.866 11.9393 122.866 12.5444C122.866 13.0396 122.781 13.4648 122.612 13.8203C122.447 14.1715 122.212 14.4657 121.907 14.7026C121.607 14.9354 121.253 15.1216 120.847 15.2612L120.244 15.5786H117.248L117.235 14.0933H119.463C119.798 14.0933 120.075 14.034 120.295 13.9155C120.515 13.797 120.68 13.632 120.79 13.4204C120.904 13.2088 120.961 12.9634 120.961 12.6841C120.961 12.3879 120.906 12.1318 120.796 11.916C120.686 11.7002 120.519 11.5352 120.295 11.4209C120.071 11.3066 119.789 11.2495 119.451 11.2495H117.908V19H116.004V9.75781ZM121.171 19L119.063 14.8804L121.076 14.8677L123.208 18.9111V19H121.171Z" fill="white" />
</svg>